<?xml version="1.0" encoding="UTF-8"?>
<svg width="1200pt" height="1200pt" version="1.1" viewBox="0 0 1200 1200" xmlns="http://www.w3.org/2000/svg">
 <g fill-rule="evenodd">
  <path d="m630.18 63.793c14.137 7.0078 18.504 17.27 13.094 30.793h-117.67c-5.4023-13.516-1.0352-23.785 13.102-30.793zm-95.902 39.105h100.32c11.438 20.281 11.566 38.844 0.37109 55.691 13.523 54.098 23.293 107.03 29.316 158.79v0.92578c1.2344 20.652 0.25391 41.258-2.9531 61.777-7.5 35.281-0.35938 59.016 21.395 71.195 0.37109 0.12109 0.68359 0.25391 0.91016 0.37109 44.508 28.391 67.703 62.219 69.539 101.43l-1.668 457.56c2.7109 2.2188 5.0391 8.6641 7.0078 19.355 0.25391 1.7383 0.49219 3.5039 0.74219 5.3516 2.0898 13.883-1.1055 31.477-9.6016 52.738-15.121 23.734-39.215 34.922-72.289 33.574l-185.87 0.003906c-26.93 1.1055-47.891-6.0859-62.891-21.574-3.4453-3.5625-6.5742-7.5703-9.4062-12-8.4844-21.254-11.676-38.844-9.5898-52.738 0.25391-1.8477 0.55078-3.625 0.92578-5.3516 1.8477-10.703 4.1172-17.148 6.8164-19.355l-1.6562-457.56c0.73047-15.984 5.0391-31.031 12.91-45.18 11.438-20.664 30.301-39.406 56.617-56.258 0.23828-0.12109 0.55078-0.25391 0.92578-0.37109 21.758-12.18 28.883-35.902 21.395-71.195-3.1914-20.52-4.1758-41.125-2.9531-61.777v-0.92578c6.0117-51.758 15.793-104.69 29.316-158.79-11.188-16.84-11.066-35.402 0.37109-55.684z"/>
  <path d="m727.74 647.68v267.42c-91.105 24.336-182.7 24.336-274.79 0l0.003906-268.15c92.074 21.516 183.68 21.766 274.79 0.73047z"/>
 </g>
</svg>
